<?xml version="1.0" encoding="utf-8"?>
<!-- Generator: Adobe Illustrator 21.1.0, SVG Export Plug-In . SVG Version: 6.00 Build 0)  -->
<svg version="1.1" id="Слой_1" xmlns="http://www.w3.org/2000/svg" xmlns:xlink="http://www.w3.org/1999/xlink" x="0px" y="0px"
	 viewBox="0 0 540 296.5" style="enable-background:new 0 0 540 296.5;" xml:space="preserve">
<style type="text/css">
	.st0{fill:#00A0EB;}
	.st1{fill:#FF7D00;}
</style>
<g id="Слой_x0020_1">
	<path class="st0" d="M468.9,232.4c2.4-0.5,5.5-1.8,7.9-5.4c2.3-3.5,4.5-11.7,4.2-19.2v-0.1v-0.1l0.1-60.8L436,23.7
		c0,0-6.1-20.6-24.6-23.4c-2.2,0.6-4.9,2-7,5.1c-2.4,3.5-4.5,11.7-4.3,19.3v0.1v0.1L400,99.8l45.1,108.9c0,0,10.2,23.8,21,23.8
		L468.9,232.4L468.9,232.4z"/>
	<path class="st0" d="M485.6,0.7H540v208.7c0,0,0,23.8-20.7,23.8h-46.3c13.7,0,12.5-29.9,12.5-29.9L485.6,0.7L485.6,0.7z"/>
	<path class="st0" d="M395.5,232.4h-54.1V23.7c0,0,0-23.8,20.6-23.8h46.3c-13.7,0-12.6,29.9-12.6,29.9L395.5,232.4L395.5,232.4z"/>
	<path class="st0" d="M183.5,140.6c0,0.7,0.1,1.4,0.1,2c0,13.4-6.4,25.3-16.4,33c-24.4,20-66,18.3-66,18.3
		c-29.7-1.1-44.1-20-48.6-28.9L0,178.3c5.5,10.5,11.6,19,18.4,25.8c6.7,6.8,14.5,12.3,23.2,16.6c17.5,8.8,37.2,13.2,59.2,13.2
		c26.2,0,48.1-6,65.6-17.8c17.5-11.9,26.2-26.9,26.2-45.2C192.6,159.2,189.5,149.1,183.5,140.6L183.5,140.6z"/>
	<path class="st0" d="M156.7,178.5c2.4-1.4,4.7-2.9,6.8-4.7c10-7.7,15.7-19.2,15.7-31.6c0-0.4,0-0.7-0.1-1.1l-0.3-6.6
		c-2.1-2.4-4.4-4.7-7.2-6.7c-1.9-1.4-4-2.7-6.2-4.1c-11.9-7.7-94.4-29.8-122.2-60.4c-6.4,3.5-12.3,8.1-16.8,14.2
		C14.7,94,25,107.1,28.8,111.1c1,0.8,1.9,1.7,3,2.5c0.3,0.2,0.7,0.5,1,0.7l0,0c0.1,0.1,0.1,0.1,0.2,0.1c1.4,1,2.8,1.9,4.3,2.8
		c11.8,7.7,90.3,33.1,120.4,62.1l-0.8-0.8L156.7,178.5L156.7,178.5z"/>
	<path class="st1" d="M256.8,46.9c0-37.2,24.7-46.9,24.7-46.9h-34.3c0,0-46.9,8-46.9,47.5c0,34.7,0,184.8,0,184.8h56.6
		C256.8,232.4,256.8,86.5,256.8,46.9z"/>
	<path class="st0" d="M117.6,0c-6.6-0.1-13.5,0-20.6,0c-25,0-45.9,6.2-62.6,18.1C17.7,29.9,9.3,52,9.3,70.2
		c0,11.3,2.7,21.2,8.2,29.5c-0.7-2.8-0.7-4.6-0.7-4.6c-0.5-5.7,1-12.4,6.2-19.6c5.4-7.5,12.6-12.8,20.4-16.7v0
		C66.6,46,96.6,47.3,96.6,47.3c4.1,0.2,11.8,0.2,21,0.3L117.6,0L117.6,0z"/>
	<path class="st1" d="M350.2,0h-59.5c-6.9,0-29.7,13-29.7,45.4v2.4h76.7c0,0,0-12.6,0-26.3C337.8,4.8,350.2,0,350.2,0z"/>
	<path class="st1" d="M121.9,0v47.7H196v-1.7c0-22.1,18.5-41.7,38.6-46L121.9,0L121.9,0z"/>
	<path class="st1" d="M26.2,281.3c0-2.4-0.8-4.4-2.3-6c-1.5-1.6-3.4-2.4-5.7-2.4c-2.2,0-4.2,0.8-5.8,2.4c-1.6,1.6-2.4,3.6-2.4,5.8
		c0,2.4,0.8,4.3,2.4,5.9s3.6,2.4,6.1,2.4c2.2,0,4-0.8,5.4-2.4C25.5,285.4,26.2,283.5,26.2,281.3L26.2,281.3z M26.5,269.4v-11.3h6.4
		v37.2h-6.4v-2.3c-1.3,1-2.6,1.8-4.1,2.3c-1.4,0.5-3,0.7-4.6,0.7c-1.8,0-3.4-0.3-5-0.9s-3-1.4-4.2-2.4c-1.7-1.5-3-3.2-3.9-5.2
		c-0.9-2-1.4-4.1-1.4-6.4c0-2.1,0.4-4.1,1.3-6c0.9-1.9,2-3.5,3.5-4.9c1.3-1.2,2.7-2.1,4.4-2.7s3.4-0.9,5.3-0.9
		c1.8,0,3.4,0.2,4.8,0.7C24,267.6,25.3,268.4,26.5,269.4L26.5,269.4z M69.4,264.3H63v-6.2h6.4V264.3z M63,295.2v-28.1h6.4v28.1H63z
		 M104.1,285.9v0.4c0,1.2,0.3,2.2,0.9,3c0.6,0.8,1.4,1.2,2.5,1.2c0.9,0,1.7-0.3,2.3-0.9c0.6-0.6,0.9-1.3,0.9-2.2
		c0-0.9-0.2-1.5-0.7-2.1c-0.5-0.5-1.2-1.1-2.4-1.6c-0.7-0.3-1.6-0.7-2.9-1.2c-1.2-0.5-2.1-0.9-2.4-1.2c-1-0.9-1.8-1.8-2.3-2.9
		c-0.5-1-0.7-2.2-0.7-3.6c0-2.4,0.8-4.4,2.5-6c1.7-1.6,3.7-2.5,6-2.5c2.5,0,4.5,0.7,5.9,2.2s2.2,3.5,2.4,6.1h-5.8v-0.2
		c0-0.9-0.2-1.6-0.7-2.1c-0.5-0.5-1.1-0.8-2-0.8c-0.7,0-1.3,0.3-1.8,0.7c-0.5,0.5-0.7,1.1-0.7,1.9c0,1.2,1.3,2.4,3.8,3.4
		c0.7,0.3,1.2,0.5,1.5,0.6c2.4,1.1,4.1,2.3,5,3.5c0.9,1.2,1.3,2.9,1.3,5c0,2.6-0.9,4.8-2.7,6.5c-1.8,1.7-4,2.6-6.7,2.6
		c-2.7,0-4.9-0.9-6.5-2.7c-1.6-1.8-2.6-4.2-2.7-7.3L104.1,285.9L104.1,285.9z M147.8,295.2v-22.3h-4.3v-5.8h4.3V258h6.5v9.1h4.3v5.8
		h-4.3v22.3H147.8z M199.5,272.8c-2.5,0.2-4.3,0.9-5.3,2c-1,1.1-1.5,3.1-1.5,6.1v14.3h-6.5v-28.1h6.1v3.2c1-1.3,2.1-2.2,3.2-2.8
		s2.5-0.9,4-0.9V272.8z M233.2,264.3h-6.4v-6.2h6.4V264.3z M226.8,295.2v-28.1h6.4v28.1H226.8z M269.9,281.3c0,2.3,0.8,4.2,2.3,5.8
		c1.5,1.6,3.3,2.4,5.5,2.4c2.4,0,4.5-0.8,6.1-2.4c1.6-1.6,2.4-3.5,2.4-5.9c0-2.3-0.8-4.2-2.4-5.8c-1.6-1.6-3.5-2.4-5.8-2.4
		c-2.3,0-4.2,0.8-5.8,2.4S269.9,278.9,269.9,281.3L269.9,281.3z M269.6,269.4c1.2-1,2.5-1.7,3.9-2.2c1.4-0.5,3-0.7,4.8-0.7
		c1.9,0,3.6,0.3,5.3,0.9c1.6,0.6,3.1,1.6,4.4,2.7c1.5,1.4,2.7,3,3.5,4.9c0.8,1.9,1.2,3.9,1.2,6c0,2.2-0.5,4.4-1.4,6.4
		c-0.9,2-2.2,3.7-3.9,5.2c-1.2,1.1-2.6,1.9-4.2,2.4c-1.6,0.6-3.2,0.9-5,0.9c-1.7,0-3.2-0.3-4.6-0.7c-1.4-0.5-2.8-1.3-4.1-2.3v2.3
		h-6.4V258h6.4L269.6,269.4L269.6,269.4z M340.2,295.2v-3c-0.9,1.3-2,2.2-3.3,2.8c-1.2,0.6-2.6,0.9-4.2,0.9c-3.5,0-6.2-1.1-8.1-3.2
		c-1.9-2.2-2.8-5.3-2.8-9.3v-16.2h6.6v12.6c0,3.8,0.4,6.4,1.3,7.8c0.9,1.4,2.4,2.1,4.5,2.1c2.2,0,3.7-0.8,4.7-2.4
		c0.9-1.6,1.4-4.2,1.4-8v-12.2h6.4v28.1L340.2,295.2L340.2,295.2z M379,295.2v-22.3h-4.3v-5.8h4.3V258h6.5v9.1h4.3v5.8h-4.3v22.3
		H379z M424.1,264.3h-6.4v-6.2h6.4V264.3z M417.7,295.2v-28.1h6.4v28.1H417.7z M459.6,281c0,2.6,0.7,4.6,2.2,6.2
		c1.4,1.5,3.4,2.3,5.8,2.3c2.4,0,4.3-0.8,5.8-2.3c1.4-1.6,2.2-3.7,2.2-6.3c0-2.4-0.7-4.3-2.3-5.8c-1.5-1.5-3.4-2.3-5.7-2.3
		c-2.4,0-4.3,0.8-5.8,2.3C460.3,276.5,459.6,278.5,459.6,281L459.6,281z M452.8,281.1c0-2,0.4-3.9,1.1-5.6c0.7-1.8,1.8-3.3,3.1-4.7
		c1.4-1.4,3-2.5,4.8-3.3s3.6-1.1,5.5-1.1c2,0,3.9,0.3,5.6,1c1.7,0.7,3.3,1.7,4.7,3c1.5,1.4,2.6,3,3.4,4.9c0.8,1.8,1.2,3.7,1.2,5.7
		c0,2.2-0.3,4.1-1,5.9c-0.7,1.8-1.7,3.4-3.1,4.8c-1.4,1.4-3,2.6-4.8,3.3c-1.8,0.7-3.7,1.1-5.8,1.1c-2.1,0-4-0.4-5.8-1.1
		c-1.7-0.7-3.3-1.9-4.7-3.4c-1.4-1.5-2.4-3.1-3.1-4.8C453.2,284.9,452.9,283,452.8,281.1L452.8,281.1z M517.4,267.2v3.2
		c1-1.3,2-2.2,3.3-2.8c1.2-0.6,2.6-0.9,4.2-0.9c2,0,3.8,0.4,5.3,1.2c1.5,0.8,2.7,1.9,3.8,3.4c0.7,1,1.1,2.2,1.4,3.5
		c0.3,1.3,0.4,3.2,0.4,5.7v14.9h-6.5v-12.4c0-3.7-0.4-6.3-1.3-7.7c-0.9-1.4-2.4-2.1-4.5-2.1c-2.2,0-3.7,0.8-4.7,2.3
		c-1,1.5-1.4,4.2-1.4,7.9v12H511v-28.1L517.4,267.2L517.4,267.2z"/>
</g>
</svg>
