<?xml version="1.0" standalone="no"?>
<!DOCTYPE svg PUBLIC "-//W3C//DTD SVG 20010904//EN"
 "http://www.w3.org/TR/2001/REC-SVG-20010904/DTD/svg10.dtd">
<svg version="1.0" xmlns="http://www.w3.org/2000/svg"
 width="260.000000pt" height="260.000000pt" viewBox="0 0 260.000000 260.000000"
 preserveAspectRatio="xMidYMid meet">
<metadata>
Created by potrace 1.11, written by Peter Selinger 2001-2013
</metadata>
<g transform="translate(0.000000,260.000000) scale(0.100000,-0.100000)"
fill="#000000" stroke="none">
<path d="M375 2000 c-109 -17 -213 -73 -260 -140 -50 -72 -70 -194 -44 -270
l12 -33 18 48 c22 57 41 79 97 113 75 43 122 55 247 61 l120 6 3 113 3 112
-73 -1 c-40 -1 -95 -5 -123 -9z"/>
<path d="M590 1895 l0 -115 172 2 172 3 8 42 c11 68 58 126 133 166 28 15 15
16 -227 17 l-258 0 0 -115z"/>
<path d="M1138 1996 c-70 -25 -127 -66 -153 -110 l-25 -43 0 -466 0 -467 130
0 130 0 0 458 c0 521 1 533 71 603 l39 39 -77 0 c-43 -1 -94 -7 -115 -14z"/>
<path d="M1355 1998 c-59 -33 -99 -93 -110 -171 l-7 -47 180 0 180 0 3 84 c3
69 8 90 27 115 l23 31 -138 0 c-82 0 -146 -5 -158 -12z"/>
<path d="M1673 1998 c-52 -25 -53 -36 -53 -582 l0 -506 125 0 125 0 1 383 c1
514 8 669 33 696 l19 21 -114 -1 c-63 0 -124 -5 -136 -11z"/>
<path d="M1916 1978 c-13 -19 -16 -59 -16 -238 l0 -216 109 -263 c61 -145 120
-278 133 -297 31 -45 64 -59 94 -39 34 22 44 74 44 237 l0 147 -115 313 c-101
274 -119 317 -150 346 -41 38 -77 41 -99 10z"/>
<path d="M2298 1482 c-3 -476 -4 -520 -21 -545 l-17 -27 116 0 c114 0 116 0
145 29 l29 29 0 516 0 516 -125 0 -124 0 -3 -518z"/>
<path d="M171 1675 c-50 -46 -67 -92 -51 -140 17 -51 53 -75 206 -140 176 -74
320 -146 379 -192 l47 -35 26 19 c56 42 94 130 77 183 -9 29 -68 59 -260 135
-184 72 -251 106 -332 166 l-53 39 -39 -35z"/>
<path d="M870 1292 c-31 -118 -166 -191 -356 -193 -100 -1 -160 22 -219 86
l-41 44 -113 -29 c-62 -15 -115 -31 -118 -34 -10 -10 59 -106 101 -140 97 -79
214 -116 366 -116 196 0 350 74 406 195 26 55 30 103 13 171 -15 59 -26 63
-39 16z"/>
<path d="M140 767 c0 -20 -4 -22 -39 -19 -31 3 -42 0 -55 -19 -20 -29 -20 -58
0 -87 13 -18 24 -22 70 -21 l54 2 0 83 c0 68 -3 84 -15 84 -9 0 -15 -9 -15
-23z m-7 -69 c8 -12 7 -21 -2 -32 -19 -23 -58 -20 -66 4 -14 43 44 67 68 28z"/>
<path d="M310 775 c0 -8 7 -15 15 -15 8 0 15 7 15 15 0 8 -7 15 -15 15 -8 0
-15 -7 -15 -15z"/>
<path d="M710 770 c0 -11 -4 -20 -10 -20 -5 0 -10 -7 -10 -15 0 -8 5 -15 10
-15 6 0 10 -22 10 -50 0 -38 4 -50 15 -50 11 0 15 12 15 50 0 28 5 50 10 50 6
0 10 7 10 15 0 8 -4 15 -10 15 -5 0 -10 9 -10 20 0 11 -7 20 -15 20 -8 0 -15
-9 -15 -20z"/>
<path d="M1080 775 c0 -8 7 -15 15 -15 8 0 15 7 15 15 0 8 -7 15 -15 15 -8 0
-15 -7 -15 -15z"/>
<path d="M1250 706 l0 -83 54 -2 c46 -1 57 3 70 21 20 29 20 58 0 87 -13 19
-24 22 -55 19 -35 -3 -39 -1 -39 19 0 14 -6 23 -15 23 -12 0 -15 -16 -15 -84z
m100 -1 c19 -23 3 -57 -27 -53 -34 4 -51 31 -34 52 17 20 45 21 61 1z"/>
<path d="M1800 770 c0 -11 -4 -20 -10 -20 -5 0 -10 -7 -10 -15 0 -8 5 -15 10
-15 6 0 10 -22 10 -50 0 -38 4 -50 15 -50 11 0 15 12 15 48 0 26 6 54 13 61
10 11 10 14 0 18 -7 3 -13 13 -13 24 0 10 -7 19 -15 19 -8 0 -15 -9 -15 -20z"/>
<path d="M1980 774 c0 -17 22 -14 28 4 2 7 -3 12 -12 12 -9 0 -16 -7 -16 -16z"/>
<path d="M310 685 c0 -51 3 -65 15 -65 12 0 15 14 15 65 0 51 -3 65 -15 65
-12 0 -15 -14 -15 -65z"/>
<path d="M490 735 c-16 -19 -4 -52 20 -58 11 -3 20 -12 20 -21 0 -19 -11 -21
-28 -4 -15 15 -26 4 -18 -17 4 -11 16 -15 38 -13 27 2 34 8 36 30 2 20 -4 31
-22 44 -33 21 -33 36 -1 28 20 -5 24 -3 19 10 -8 20 -47 21 -64 1z"/>
<path d="M890 684 c0 -50 3 -64 15 -64 11 0 15 12 15 45 0 31 5 47 15 51 26
10 16 31 -15 32 l-30 1 0 -65z"/>
<path d="M1080 685 c0 -51 3 -65 15 -65 12 0 15 14 15 65 0 51 -3 65 -15 65
-12 0 -15 -14 -15 -65z"/>
<path d="M1530 697 c0 -29 5 -58 12 -65 7 -7 31 -12 55 -12 l43 0 0 65 c0 51
-3 65 -15 65 -11 0 -15 -12 -15 -49 0 -31 -5 -51 -12 -54 -28 -9 -38 6 -38 54
0 37 -4 49 -15 49 -11 0 -15 -13 -15 -53z"/>
<path d="M1980 685 c0 -51 3 -65 15 -65 12 0 15 14 15 65 0 51 -3 65 -15 65
-12 0 -15 -14 -15 -65z"/>
<path d="M2161 723 c-35 -43 -3 -103 54 -103 57 0 84 58 49 108 -22 32 -76 30
-103 -5z m84 -38 c0 -27 -3 -30 -30 -30 -21 0 -31 5 -33 18 -6 33 6 49 35 45
24 -3 28 -8 28 -33z"/>
<path d="M2420 684 c0 -49 3 -64 14 -64 11 0 16 14 18 48 3 40 6 47 26 50 20
3 22 0 22 -47 0 -39 4 -51 15 -51 11 0 15 13 15 54 0 63 -11 75 -68 74 l-42 0
0 -64z"/>
</g>
</svg>
